#N canvas 668 71 662 690 10;
#X floatatom 128 134 5 0 0 0 - - -, f 5;
#X obj 128 62 loadbang;
#X msg 128 88 0;
#X text 44 133 current bank;
#X text 43 88 default bank;
#N canvas 34 703 256 234 bankSelector 0;
#X obj 151 63 + 1;
#X obj 66 64 - 1;
#X floatatom 105 175 5 0 0 0 - - -, f 5;
#X obj 105 106 t b f;
#X obj 66 38 v currentBank;
#X obj 151 38 v currentBank;
#X obj 105 143 v currentBank;
#X obj 15 15 inlet;
#X obj 105 196 outlet;
#X obj 66 15 inlet;
#X obj 151 14 inlet;
#X connect 0 0 3 0;
#X connect 1 0 3 0;
#X connect 2 0 8 0;
#X connect 3 0 6 0;
#X connect 3 1 6 0;
#X connect 4 0 1 0;
#X connect 5 0 0 0;
#X connect 6 0 2 0;
#X connect 7 0 3 0;
#X connect 9 0 4 0;
#X connect 10 0 5 0;
#X restore 135 111 pd bankSelector;
#X obj 178 89 bng 15 250 50 0 empty empty empty 17 7 0 10 -262144 -1
-1;
#X obj 222 88 bng 15 250 50 0 empty empty empty 17 7 0 10 -262144 -1
-1;
#X text 160 89 -;
#X text 205 88 +;
#X obj 128 543 makefilename ~/Desktop/Imported2/Bank_%d/Board_%%d/Slot_%%%%%%%%d/Material_%%%%d.wav
, f 85;
#X text 14 543 filename template;
#X obj 446 110 hsl 128 15 0 1 0 0 empty empty empty -2 -8 0 10 -262144
-1 -1 2540 1;
#X obj 443 62 loadbang;
#X floatatom 443 133 5 0 0 0 - - -, f 5;
#X text 353 110 reverb amount;
#X text 477 86 (default);
#X obj 77 271 vsl 15 128 0 1 0 0 empty empty empty 0 -9 0 10 -262144
-1 -1 10160 1;
#X floatatom 77 407 5 0 0 0 - - -, f 5;
#X obj 127 271 vsl 15 128 0 1 0 0 empty empty empty 0 -9 0 10 -262144
-1 -1 10160 1;
#X floatatom 127 407 5 0 0 0 - - -, f 5;
#X obj 177 271 vsl 15 128 0 1 0 0 empty empty empty 0 -9 0 10 -262144
-1 -1 10160 1;
#X floatatom 177 407 5 0 0 0 - - -, f 5;
#X msg 77 246 0.8;
#X msg 127 246 0.8;
#X msg 177 246 0.8;
#X obj 527 229 loadbang;
#X text 128 211 MAIN MIX;
#X text 65 228 board 0;
#X text 117 228 board 1;
#X text 168 228 board 2;
#X obj 227 271 vsl 15 128 0 1 0 0 empty empty empty 0 -9 0 10 -262144
-1 -1 12700 1;
#X floatatom 227 407 5 0 0 0 - - -, f 5;
#X obj 307 271 vsl 15 128 0 1 0 0 empty empty empty 0 -9 0 10 -262144
-1 -1 12700 1;
#X floatatom 307 407 5 0 0 0 - - -, f 5;
#X obj 387 271 vsl 15 128 0 1 0 0 empty empty empty 0 -9 0 10 -262144
-1 -1 12700 1;
#X floatatom 387 407 5 0 0 0 - - -, f 5;
#X obj 467 271 vsl 15 128 0 1 0 0 empty empty empty 0 -9 0 10 -262144
-1 -1 12700 1;
#X floatatom 467 407 5 0 0 0 - - -, f 5;
#X text 298 211 BOARD 0;
#X text 377 211 BOARD 1;
#X text 455 211 BOARD 2;
#X obj 588 231 bng 15 250 50 0 empty empty empty 17 7 0 10 -262144
-1 -1;
#X msg 227 246 1;
#X msg 307 246 1;
#X msg 387 246 1;
#X msg 467 246 1;
#X obj 128 564 s changedFilename;
#X obj 403 625 r changedFilename;
#X obj 482 131 s freeverbControlValues;
#X obj 127 625 r freeverbControlValues;
#X obj 167 132 s currentBank;
#X obj 128 522 r currentBank;
#X obj 225 460 s channelMixerValues;
#N canvas 138 479 457 362 theBrain 1;
#N canvas 8 87 575 304 boardElement 0;
#X obj 86 210 readsf~;
#X msg 94 188 1;
#X msg 86 166 open \$1;
#X msg 15 37 set \$1;
#X obj 86 78 makefilename -;
#X obj 181 210 readsf~;
#X msg 189 188 1;
#X msg 181 166 open \$1;
#X obj 181 78 makefilename -;
#X obj 276 210 readsf~;
#X msg 284 188 1;
#X msg 276 166 open \$1;
#X obj 276 78 makefilename -;
#X obj 371 210 readsf~;
#X msg 379 188 1;
#X msg 371 166 open \$1;
#X obj 371 78 makefilename -;
#X obj 466 210 readsf~;
#X msg 474 188 1;
#X msg 466 166 open \$1;
#X obj 466 78 makefilename -;
#X obj 15 15 inlet;
#X obj 86 15 inlet;
#X obj 181 16 inlet;
#X obj 276 16 inlet;
#X obj 371 16 inlet;
#X obj 466 16 inlet;
#X obj 248 266 outlet~;
#X obj 305 266 outlet~;
#X obj 86 144 makefilename -;
#X msg 131 122 set \$1;
#X obj 86 100 t b s;
#X msg 86 122 0;
#X obj 181 144 makefilename -;
#X msg 226 122 set \$1;
#X obj 181 100 t b s;
#X obj 276 144 makefilename -;
#X msg 321 122 set \$1;
#X obj 276 100 t b s;
#X obj 371 144 makefilename -;
#X msg 416 122 set \$1;
#X obj 371 100 t b s;
#X obj 466 144 makefilename -;
#X msg 511 122 set \$1;
#X obj 466 100 t b s;
#X msg 181 122 1;
#X msg 276 122 2;
#X msg 371 122 3;
#X msg 466 122 4, f 22;
#X connect 0 0 27 0;
#X connect 0 0 28 0;
#X connect 1 0 0 0;
#X connect 2 0 0 0;
#X connect 2 0 1 0;
#X connect 3 0 4 0;
#X connect 3 0 8 0;
#X connect 3 0 12 0;
#X connect 3 0 16 0;
#X connect 3 0 20 0;
#X connect 4 0 31 0;
#X connect 5 0 27 0;
#X connect 5 0 28 0;
#X connect 6 0 5 0;
#X connect 7 0 5 0;
#X connect 7 0 6 0;
#X connect 8 0 35 0;
#X connect 9 0 27 0;
#X connect 9 0 28 0;
#X connect 10 0 9 0;
#X connect 11 0 9 0;
#X connect 11 0 10 0;
#X connect 12 0 38 0;
#X connect 13 0 27 0;
#X connect 13 0 28 0;
#X connect 14 0 13 0;
#X connect 15 0 13 0;
#X connect 15 0 14 0;
#X connect 16 0 41 0;
#X connect 17 0 27 0;
#X connect 17 0 28 0;
#X connect 18 0 17 0;
#X connect 19 0 17 0;
#X connect 19 0 18 0;
#X connect 20 0 44 0;
#X connect 21 0 3 0;
#X connect 22 0 4 0;
#X connect 23 0 8 0;
#X connect 24 0 12 0;
#X connect 25 0 16 0;
#X connect 26 0 20 0;
#X connect 29 0 2 0;
#X connect 30 0 29 0;
#X connect 31 0 32 0;
#X connect 31 1 30 0;
#X connect 32 0 29 0;
#X connect 33 0 7 0;
#X connect 34 0 33 0;
#X connect 35 0 45 0;
#X connect 35 1 34 0;
#X connect 36 0 11 0;
#X connect 37 0 36 0;
#X connect 38 0 46 0;
#X connect 38 1 37 0;
#X connect 39 0 15 0;
#X connect 40 0 39 0;
#X connect 41 0 47 0;
#X connect 41 1 40 0;
#X connect 42 0 19 0;
#X connect 43 0 42 0;
#X connect 44 0 48 0;
#X connect 44 1 43 0;
#X connect 45 0 33 0;
#X connect 46 0 36 0;
#X connect 47 0 39 0;
#X connect 48 0 42 0;
#X restore 149 136 pd boardElement;
#N canvas 492 851 678 141 keyboardInputB0 1;
#X obj 45 106 outlet;
#X obj 15 13 key;
#X floatatom 15 36 5 0 0 0 - - -, f 5;
#X msg 16 81 0;
#X obj 175 106 outlet;
#X obj 305 105 outlet;
#X obj 435 105 outlet;
#X obj 565 105 outlet;
#X obj 16 57 sel 97 104 65 72, f 20;
#X msg 45 81 1;
#X msg 74 81 2;
#X msg 103 81 3;
#X msg 146 81 0;
#X msg 175 81 1;
#X msg 204 81 2;
#X msg 233 81 3;
#X msg 276 81 0;
#X msg 305 81 1;
#X msg 334 81 2;
#X msg 363 81 3;
#X msg 406 81 0;
#X msg 435 81 1;
#X msg 464 81 2;
#X msg 493 81 3;
#X msg 536 81 0;
#X msg 565 81 1;
#X msg 594 81 2;
#X msg 623 81 3;
#X obj 146 57 sel 115 106 83 74, f 20;
#X obj 276 57 sel 100 107 68 75, f 20;
#X obj 406 57 sel 102 108 70 76, f 20;
#X obj 536 57 sel 103 59 71 58, f 20;
#X connect 1 0 2 0;
#X connect 2 0 8 0;
#X connect 2 0 28 0;
#X connect 2 0 29 0;
#X connect 2 0 30 0;
#X connect 2 0 31 0;
#X connect 3 0 0 0;
#X connect 8 0 3 0;
#X connect 8 1 9 0;
#X connect 8 2 10 0;
#X connect 8 3 11 0;
#X connect 9 0 0 0;
#X connect 10 0 0 0;
#X connect 11 0 0 0;
#X connect 12 0 4 0;
#X connect 13 0 4 0;
#X connect 14 0 4 0;
#X connect 15 0 4 0;
#X connect 16 0 5 0;
#X connect 17 0 5 0;
#X connect 18 0 5 0;
#X connect 19 0 5 0;
#X connect 20 0 6 0;
#X connect 21 0 6 0;
#X connect 22 0 6 0;
#X connect 23 0 6 0;
#X connect 24 0 7 0;
#X connect 25 0 7 0;
#X connect 26 0 7 0;
#X connect 27 0 7 0;
#X connect 28 0 12 0;
#X connect 28 1 13 0;
#X connect 28 2 14 0;
#X connect 28 3 15 0;
#X connect 29 0 16 0;
#X connect 29 1 17 0;
#X connect 29 2 18 0;
#X connect 29 3 19 0;
#X connect 30 0 20 0;
#X connect 30 1 21 0;
#X connect 30 2 22 0;
#X connect 30 3 23 0;
#X connect 31 0 24 0;
#X connect 31 1 25 0;
#X connect 31 2 26 0;
#X connect 31 3 27 0;
#X restore 166 107 pd keyboardInputB0;
#N canvas 649 692 676 140 keyboardInputB1 0;
#X obj 45 106 outlet;
#X obj 15 13 key;
#X floatatom 15 36 5 0 0 0 - - -, f 5;
#X msg 16 81 0;
#X obj 175 106 outlet;
#X obj 305 105 outlet;
#X obj 435 105 outlet;
#X obj 565 105 outlet;
#X msg 45 81 1;
#X msg 74 81 2;
#X msg 103 81 3;
#X msg 146 81 0;
#X msg 175 81 1;
#X msg 204 81 2;
#X msg 233 81 3;
#X msg 276 81 0;
#X msg 305 81 1;
#X msg 334 81 2;
#X msg 363 81 3;
#X msg 406 81 0;
#X msg 435 81 1;
#X msg 464 81 2;
#X msg 493 81 3;
#X msg 536 81 0;
#X msg 565 81 1;
#X msg 594 81 2;
#X msg 623 81 3;
#X obj 16 57 sel 113 121 81 89, f 20;
#X obj 146 57 sel 119 117 87 85, f 20;
#X obj 276 57 sel 101 105 69 73, f 20;
#X obj 406 57 sel 114 111 82 79, f 20;
#X obj 536 57 sel 116 112 84 80, f 20;
#X connect 1 0 2 0;
#X connect 2 0 27 0;
#X connect 2 0 28 0;
#X connect 2 0 29 0;
#X connect 2 0 30 0;
#X connect 2 0 31 0;
#X connect 3 0 0 0;
#X connect 8 0 0 0;
#X connect 9 0 0 0;
#X connect 10 0 0 0;
#X connect 11 0 4 0;
#X connect 12 0 4 0;
#X connect 13 0 4 0;
#X connect 14 0 4 0;
#X connect 15 0 5 0;
#X connect 16 0 5 0;
#X connect 17 0 5 0;
#X connect 18 0 5 0;
#X connect 19 0 6 0;
#X connect 20 0 6 0;
#X connect 21 0 6 0;
#X connect 22 0 6 0;
#X connect 23 0 7 0;
#X connect 24 0 7 0;
#X connect 25 0 7 0;
#X connect 26 0 7 0;
#X connect 27 0 3 0;
#X connect 27 1 8 0;
#X connect 27 2 9 0;
#X connect 27 3 10 0;
#X connect 28 0 11 0;
#X connect 28 1 12 0;
#X connect 28 2 13 0;
#X connect 28 3 14 0;
#X connect 29 0 15 0;
#X connect 29 1 16 0;
#X connect 29 2 17 0;
#X connect 29 3 18 0;
#X connect 30 0 19 0;
#X connect 30 1 20 0;
#X connect 30 2 21 0;
#X connect 30 3 22 0;
#X connect 31 0 23 0;
#X connect 31 1 24 0;
#X connect 31 2 25 0;
#X connect 31 3 26 0;
#X restore 326 107 pd keyboardInputB1;
#N canvas 20 360 310 174 makeBoardFilename 0;
#X obj 16 108 makefilename -;
#X msg 47 87 0;
#X msg 136 87 1;
#X msg 79 37 set \$1;
#X obj 111 108 makefilename -;
#X obj 14 15 inlet;
#X obj 16 133 outlet;
#X obj 206 108 makefilename -;
#X obj 14 37 t b b b s;
#X msg 236 87 2;
#X obj 111 131 outlet;
#X obj 206 130 outlet, f 54;
#X connect 0 0 6 0;
#X connect 1 0 0 0;
#X connect 2 0 4 0;
#X connect 3 0 0 0;
#X connect 3 0 4 0;
#X connect 3 0 7 0;
#X connect 4 0 10 0;
#X connect 5 0 8 0;
#X connect 7 0 11 0;
#X connect 8 0 9 0;
#X connect 8 1 2 0;
#X connect 8 2 1 0;
#X connect 8 3 3 0;
#X connect 9 0 7 0;
#X restore 180 48 pd makeBoardFilename;
#N canvas 7 412 576 308 boardElement 0;
#X obj 86 210 readsf~;
#X msg 94 188 1;
#X msg 86 166 open \$1;
#X msg 15 37 set \$1;
#X obj 86 78 makefilename -;
#X obj 181 210 readsf~;
#X msg 189 188 1;
#X msg 181 166 open \$1;
#X obj 181 78 makefilename -;
#X obj 276 210 readsf~;
#X msg 284 188 1;
#X msg 276 166 open \$1;
#X obj 276 78 makefilename -;
#X obj 371 210 readsf~;
#X msg 379 188 1;
#X msg 371 166 open \$1;
#X obj 371 78 makefilename -;
#X obj 466 210 readsf~;
#X msg 474 188 1;
#X msg 466 166 open \$1;
#X obj 466 78 makefilename -;
#X obj 15 15 inlet;
#X obj 86 15 inlet;
#X obj 181 16 inlet;
#X obj 276 16 inlet;
#X obj 371 16 inlet;
#X obj 466 16 inlet;
#X obj 248 266 outlet~;
#X obj 305 266 outlet~;
#X obj 86 144 makefilename -;
#X msg 131 122 set \$1;
#X obj 86 100 t b s;
#X msg 86 122 0;
#X obj 181 144 makefilename -;
#X msg 226 122 set \$1;
#X obj 181 100 t b s;
#X obj 276 144 makefilename -;
#X msg 321 122 set \$1;
#X obj 276 100 t b s;
#X obj 371 144 makefilename -;
#X msg 416 122 set \$1;
#X obj 371 100 t b s;
#X obj 466 144 makefilename -;
#X msg 511 122 set \$1;
#X obj 466 100 t b s;
#X msg 181 122 1;
#X msg 276 122 2;
#X msg 371 122 3;
#X msg 466 122 4, f 22;
#X connect 0 0 27 0;
#X connect 0 0 28 0;
#X connect 1 0 0 0;
#X connect 2 0 0 0;
#X connect 2 0 1 0;
#X connect 3 0 4 0;
#X connect 3 0 8 0;
#X connect 3 0 12 0;
#X connect 3 0 16 0;
#X connect 3 0 20 0;
#X connect 4 0 31 0;
#X connect 5 0 27 0;
#X connect 5 0 28 0;
#X connect 6 0 5 0;
#X connect 7 0 5 0;
#X connect 7 0 6 0;
#X connect 8 0 35 0;
#X connect 9 0 27 0;
#X connect 9 0 28 0;
#X connect 10 0 9 0;
#X connect 11 0 9 0;
#X connect 11 0 10 0;
#X connect 12 0 38 0;
#X connect 13 0 27 0;
#X connect 13 0 28 0;
#X connect 14 0 13 0;
#X connect 15 0 13 0;
#X connect 15 0 14 0;
#X connect 16 0 41 0;
#X connect 17 0 27 0;
#X connect 17 0 28 0;
#X connect 18 0 17 0;
#X connect 19 0 17 0;
#X connect 19 0 18 0;
#X connect 20 0 44 0;
#X connect 21 0 3 0;
#X connect 22 0 4 0;
#X connect 23 0 8 0;
#X connect 24 0 12 0;
#X connect 25 0 16 0;
#X connect 26 0 20 0;
#X connect 29 0 2 0;
#X connect 30 0 29 0;
#X connect 31 0 32 0;
#X connect 31 1 30 0;
#X connect 32 0 29 0;
#X connect 33 0 7 0;
#X connect 34 0 33 0;
#X connect 35 0 45 0;
#X connect 35 1 34 0;
#X connect 36 0 11 0;
#X connect 37 0 36 0;
#X connect 38 0 46 0;
#X connect 38 1 37 0;
#X connect 39 0 15 0;
#X connect 40 0 39 0;
#X connect 41 0 47 0;
#X connect 41 1 40 0;
#X connect 42 0 19 0;
#X connect 43 0 42 0;
#X connect 44 0 48 0;
#X connect 44 1 43 0;
#X connect 45 0 33 0;
#X connect 46 0 36 0;
#X connect 47 0 39 0;
#X connect 48 0 42 0;
#X restore 309 137 pd boardElement;
#N canvas 38 151 129 118 freeverbControl 0;
#X obj 64 12 inlet;
#X obj 64 84 outlet;
#X msg 12 60 wet \$1;
#N canvas 64 591 72 162 inv 0;
#X obj 12 13 inlet;
#X obj 12 123 outlet;
#X msg 12 68 1;
#X obj 12 41 t b f;
#X obj 12 95 -;
#X connect 0 0 3 0;
#X connect 2 0 4 0;
#X connect 3 0 2 0;
#X connect 3 1 4 1;
#X connect 4 0 1 0;
#X restore 64 36 pd inv;
#X msg 64 60 dry \$1;
#X connect 0 0 2 0;
#X connect 0 0 3 0;
#X connect 2 0 1 0;
#X connect 3 0 4 0;
#X connect 4 0 1 0;
#X restore 15 177 pd freeverbControl;
#N canvas 18 112 572 114 outputBuiltIn 0;
#X obj 21 30 inlet~;
#X obj 78 30 inlet~;
#X text 21 12 main L;
#X text 79 12 main R;
#X obj 163 30 inlet~;
#X obj 221 30 inlet~;
#X text 158 12 board0 L;
#X text 216 12 board0 R;
#X obj 304 30 inlet~;
#X obj 362 30 inlet~;
#X obj 444 30 inlet~;
#X obj 502 30 inlet~;
#X text 299 12 board1 L;
#X text 357 12 board1 R;
#X text 439 12 board2 L;
#X text 497 12 board2 R;
#X obj 269 84 dac~;
#X connect 0 0 16 0;
#X connect 1 0 16 1;
#X restore 268 318 pd outputBuiltIn;
#N canvas 86 509 573 96 outputAdapter 0;
#X obj 21 30 inlet~;
#X obj 78 30 inlet~;
#X text 21 12 main L;
#X text 79 12 main R;
#X obj 163 30 inlet~;
#X obj 221 30 inlet~;
#X text 158 12 board0 L;
#X text 216 12 board0 R;
#X obj 304 30 inlet~;
#X obj 362 30 inlet~;
#X obj 444 30 inlet~;
#X obj 502 30 inlet~;
#X text 299 12 board1 L;
#X text 357 12 board1 R;
#X text 439 12 board2 L;
#X text 497 12 board2 R;
#X obj 21 55 outlet~;
#X obj 78 55 outlet~;
#X obj 163 55 outlet~;
#X obj 221 55 outlet~;
#X obj 304 55 outlet~;
#X obj 362 55 outlet~;
#X obj 444 55 outlet~;
#X obj 502 55 outlet~;
#X connect 0 0 16 0;
#X connect 1 0 17 0;
#X connect 4 0 18 0;
#X connect 5 0 19 0;
#X connect 8 0 20 0;
#X connect 9 0 21 0;
#X connect 10 0 22 0;
#X connect 11 0 23 0;
#X restore 156 267 pd outputAdapter;
#N canvas 25 286 561 104 outputFA101 0;
#X obj 21 30 inlet~;
#X obj 78 30 inlet~;
#X text 21 12 main L;
#X text 79 12 main R;
#X obj 163 30 inlet~;
#X obj 221 30 inlet~;
#X text 158 12 board0 L;
#X text 216 12 board0 R;
#X obj 304 30 inlet~;
#X obj 362 30 inlet~;
#X obj 444 30 inlet~;
#X obj 502 30 inlet~;
#X text 299 12 board1 L;
#X text 357 12 board1 R;
#X text 439 12 board2 L;
#X text 497 12 board2 R;
#X obj 28 64 dac~ 1 2;
#X obj 170 64 dac~ 3 4;
#X obj 311 64 dac~ 5 6;
#X obj 451 64 dac~ 7 8;
#X connect 0 0 16 0;
#X connect 1 0 16 1;
#X connect 4 0 17 0;
#X connect 5 0 17 1;
#X connect 8 0 18 0;
#X connect 9 0 18 1;
#X connect 10 0 19 0;
#X connect 11 0 19 1;
#X restore 163 318 pd outputFA101;
#N canvas 0 23 515 122 effectProcessor 0;
#X obj 25 31 inlet;
#X text 17 13 controls;
#X obj 103 31 inlet~;
#X obj 161 31 inlet~;
#X text 98 13 board0 L;
#X text 156 13 board0 R;
#X obj 244 31 inlet~;
#X obj 302 31 inlet~;
#X obj 384 31 inlet~;
#X obj 442 31 inlet~;
#X text 239 13 board1 L;
#X text 297 13 board1 R;
#X text 379 13 board2 L;
#X text 437 13 board2 R;
#X obj 103 56 freeverb~;
#X obj 244 56 freeverb~;
#X obj 384 56 freeverb~;
#X obj 103 82 outlet~;
#X obj 161 82 outlet~;
#X obj 244 82 outlet~;
#X obj 302 82 outlet~;
#X obj 384 82 outlet~;
#X obj 442 82 outlet~;
#X connect 0 0 14 0;
#X connect 0 0 15 0;
#X connect 0 0 16 0;
#X connect 2 0 14 0;
#X connect 3 0 14 1;
#X connect 6 0 15 0;
#X connect 7 0 15 1;
#X connect 8 0 16 0;
#X connect 9 0 16 1;
#X connect 14 0 17 0;
#X connect 14 1 18 0;
#X connect 15 0 19 0;
#X connect 15 1 20 0;
#X connect 16 0 21 0;
#X connect 16 1 22 0;
#X restore 156 194 pd effectProcessor;
#N canvas 63 483 603 378 channelMixer 0;
#X obj 25 31 inlet;
#X text 17 13 controls;
#X obj 183 31 inlet~;
#X obj 241 31 inlet~;
#X text 178 13 board0 L;
#X text 236 13 board0 R;
#X obj 324 31 inlet~;
#X obj 382 31 inlet~;
#X obj 464 31 inlet~;
#X obj 522 31 inlet~;
#X text 319 13 board1 L;
#X text 377 13 board1 R;
#X text 459 13 board2 L;
#X text 517 13 board2 R;
#X obj 183 245 *~;
#X obj 241 245 *~;
#X obj 324 245 *~;
#X obj 382 245 *~;
#X obj 464 245 *~;
#X obj 522 245 *~;
#X obj 192 160 outlet~;
#X obj 192 139 *~;
#X obj 252 160 outlet~;
#X obj 252 139 *~;
#X obj 334 160 outlet~;
#X obj 334 139 *~;
#X obj 391 160 outlet~;
#X obj 391 139 *~;
#X obj 473 160 outlet~;
#X obj 473 139 *~;
#X obj 530 160 outlet~;
#X obj 530 139 *~;
#X obj 24 338 outlet~;
#X obj 82 338 outlet~;
#X obj 24 318 *~;
#X obj 82 318 *~;
#X obj 25 52 unpack f f f f f f f, f 21;
#X connect 0 0 36 0;
#X connect 2 0 14 0;
#X connect 2 0 21 0;
#X connect 3 0 15 0;
#X connect 3 0 23 0;
#X connect 6 0 16 0;
#X connect 6 0 25 0;
#X connect 7 0 17 0;
#X connect 7 0 27 0;
#X connect 8 0 18 0;
#X connect 8 0 29 0;
#X connect 9 0 19 0;
#X connect 9 0 31 0;
#X connect 14 0 34 0;
#X connect 15 0 35 0;
#X connect 16 0 34 0;
#X connect 17 0 35 0;
#X connect 18 0 34 0;
#X connect 19 0 35 0;
#X connect 21 0 20 0;
#X connect 23 0 22 0;
#X connect 25 0 24 0;
#X connect 27 0 26 0;
#X connect 29 0 28 0;
#X connect 31 0 30 0;
#X connect 34 0 32 0;
#X connect 35 0 33 0;
#X connect 36 0 14 1;
#X connect 36 0 15 1;
#X connect 36 1 16 1;
#X connect 36 1 17 1;
#X connect 36 2 18 1;
#X connect 36 2 19 1;
#X connect 36 3 34 1;
#X connect 36 3 35 1;
#X connect 36 4 21 1;
#X connect 36 4 23 1;
#X connect 36 5 25 1;
#X connect 36 5 27 1;
#X connect 36 6 29 1;
#X connect 36 6 31 1;
#X restore 159 240 pd channelMixer;
#X obj 15 17 inlet;
#X obj 180 19 inlet;
#X obj 98 18 inlet;
#N canvas 659 236 680 182 midiInputB0 1;
#X obj 45 136 outlet;
#X floatatom 15 66 5 0 0 0 - - -, f 5;
#X msg 16 111 0;
#X obj 175 136 outlet;
#X obj 305 135 outlet;
#X obj 435 135 outlet;
#X obj 565 135 outlet;
#X msg 45 111 1;
#X msg 74 111 2;
#X msg 103 111 3;
#X msg 146 111 0;
#X msg 175 111 1;
#X msg 204 111 2;
#X msg 233 111 3;
#X msg 276 111 0;
#X msg 305 111 1;
#X msg 334 111 2;
#X msg 363 111 3;
#X msg 406 111 0;
#X msg 435 111 1;
#X msg 464 111 2;
#X msg 493 111 3;
#X msg 536 111 0;
#X msg 565 111 1;
#X msg 594 111 2;
#X msg 623 111 3;
#X obj 15 7 notein;
#X obj 15 35 stripnote;
#X obj 16 87 sel 0 5 10 15, f 20;
#X obj 146 87 sel 1 6 11 16, f 20;
#X obj 276 87 sel 2 7 12 17, f 20;
#X obj 406 87 sel 3 8 13 18, f 20;
#X obj 536 87 sel 4 9 14 19, f 20;
#X connect 1 0 28 0;
#X connect 1 0 29 0;
#X connect 1 0 30 0;
#X connect 1 0 31 0;
#X connect 1 0 32 0;
#X connect 2 0 0 0;
#X connect 7 0 0 0;
#X connect 8 0 0 0;
#X connect 9 0 0 0;
#X connect 10 0 3 0;
#X connect 11 0 3 0;
#X connect 12 0 3 0;
#X connect 13 0 3 0;
#X connect 14 0 4 0;
#X connect 15 0 4 0;
#X connect 16 0 4 0;
#X connect 17 0 4 0;
#X connect 18 0 5 0;
#X connect 19 0 5 0;
#X connect 20 0 5 0;
#X connect 21 0 5 0;
#X connect 22 0 6 0;
#X connect 23 0 6 0;
#X connect 24 0 6 0;
#X connect 25 0 6 0;
#X connect 26 0 27 0;
#X connect 26 1 27 1;
#X connect 27 0 1 0;
#X connect 28 0 2 0;
#X connect 28 1 7 0;
#X connect 28 2 8 0;
#X connect 28 3 9 0;
#X connect 29 0 10 0;
#X connect 29 1 11 0;
#X connect 29 2 12 0;
#X connect 29 3 13 0;
#X connect 30 0 14 0;
#X connect 30 1 15 0;
#X connect 30 2 16 0;
#X connect 30 3 17 0;
#X connect 31 0 18 0;
#X connect 31 1 19 0;
#X connect 31 2 20 0;
#X connect 31 3 21 0;
#X connect 32 0 22 0;
#X connect 32 1 23 0;
#X connect 32 2 24 0;
#X connect 32 3 25 0;
#X restore 146 79 pd midiInputB0;
#N canvas 805 581 678 182 midiInputB1 1;
#X obj 45 136 outlet;
#X floatatom 15 66 5 0 0 0 - - -, f 5;
#X msg 16 111 0;
#X obj 175 136 outlet;
#X obj 305 135 outlet;
#X obj 435 135 outlet;
#X obj 565 135 outlet;
#X msg 45 111 1;
#X msg 74 111 2;
#X msg 103 111 3;
#X msg 146 111 0;
#X msg 175 111 1;
#X msg 204 111 2;
#X msg 233 111 3;
#X msg 276 111 0;
#X msg 305 111 1;
#X msg 334 111 2;
#X msg 363 111 3;
#X msg 406 111 0;
#X msg 435 111 1;
#X msg 464 111 2;
#X msg 493 111 3;
#X msg 536 111 0;
#X msg 565 111 1;
#X msg 594 111 2;
#X msg 623 111 3;
#X obj 15 7 notein;
#X obj 15 35 stripnote;
#X obj 146 87 sel 21 26 31 36, f 20;
#X obj 276 87 sel 22 27 32 37, f 20;
#X obj 406 87 sel 23 28 33 38, f 20;
#X obj 536 87 sel 24 29 34 39, f 20;
#X obj 16 87 sel 20 25 30 36, f 20;
#X connect 1 0 28 0;
#X connect 1 0 29 0;
#X connect 1 0 30 0;
#X connect 1 0 31 0;
#X connect 1 0 32 0;
#X connect 2 0 0 0;
#X connect 7 0 0 0;
#X connect 8 0 0 0;
#X connect 9 0 0 0;
#X connect 10 0 3 0;
#X connect 11 0 3 0;
#X connect 12 0 3 0;
#X connect 13 0 3 0;
#X connect 14 0 4 0;
#X connect 15 0 4 0;
#X connect 16 0 4 0;
#X connect 17 0 4 0;
#X connect 18 0 5 0;
#X connect 19 0 5 0;
#X connect 20 0 5 0;
#X connect 21 0 5 0;
#X connect 22 0 6 0;
#X connect 23 0 6 0;
#X connect 24 0 6 0;
#X connect 25 0 6 0;
#X connect 26 0 27 0;
#X connect 26 1 27 1;
#X connect 27 0 1 0;
#X connect 28 0 10 0;
#X connect 28 1 11 0;
#X connect 28 2 12 0;
#X connect 28 3 13 0;
#X connect 29 0 14 0;
#X connect 29 1 15 0;
#X connect 29 2 16 0;
#X connect 29 3 17 0;
#X connect 30 0 18 0;
#X connect 30 1 19 0;
#X connect 30 2 20 0;
#X connect 30 3 21 0;
#X connect 31 0 22 0;
#X connect 31 1 23 0;
#X connect 31 2 24 0;
#X connect 31 3 25 0;
#X connect 32 0 2 0;
#X connect 32 1 7 0;
#X connect 32 2 8 0;
#X connect 32 3 9 0;
#X restore 306 79 pd midiInputB1;
#X connect 0 0 9 1;
#X connect 0 1 9 2;
#X connect 1 0 0 1;
#X connect 1 1 0 2;
#X connect 1 2 0 3;
#X connect 1 3 0 4;
#X connect 1 4 0 5;
#X connect 2 0 4 1;
#X connect 2 1 4 2;
#X connect 2 2 4 3;
#X connect 2 3 4 4;
#X connect 2 4 4 5;
#X connect 3 0 0 0;
#X connect 3 1 4 0;
#X connect 4 0 9 3;
#X connect 4 1 9 4;
#X connect 5 0 9 0;
#X connect 7 0 8 0;
#X connect 7 1 8 1;
#X connect 7 2 8 2;
#X connect 7 3 8 3;
#X connect 7 4 8 4;
#X connect 7 5 8 5;
#X connect 7 6 8 6;
#X connect 7 7 8 7;
#X connect 9 0 10 1;
#X connect 9 1 10 2;
#X connect 9 2 10 3;
#X connect 9 3 10 4;
#X connect 9 4 10 5;
#X connect 9 5 10 6;
#X connect 10 0 7 0;
#X connect 10 1 7 1;
#X connect 10 2 7 2;
#X connect 10 3 7 3;
#X connect 10 4 7 4;
#X connect 10 5 7 5;
#X connect 10 6 7 6;
#X connect 10 7 7 7;
#X connect 11 0 5 0;
#X connect 12 0 3 0;
#X connect 13 0 10 0;
#X connect 14 0 0 1;
#X connect 14 1 0 2;
#X connect 14 2 0 3;
#X connect 14 3 0 4;
#X connect 14 4 0 5;
#X connect 15 0 4 1;
#X connect 15 1 4 2;
#X connect 15 2 4 3;
#X connect 15 3 4 4;
#X connect 15 4 4 5;
#X restore 243 649 pd theBrain;
#X obj 274 625 r channelMixerValues;
#X text 27 32 ----------------- SOUND BANKS -----------------;
#X text 347 32 ------------------- REVERB -------------------;
#X text 28 175 ---------------------------------------------- MIXER
;
#X text 346 175 ----------------------------------------------;
#X text 28 495 -------------------------------------------- FILENAMES
;
#X text 358 495 --------------------------------------------;
#X text 28 595 ---------------------------------------------- BRAIN
;
#X text 347 595 ----------------------------------------------;
#N canvas 0 23 313 189 channelMixerValuePacker 0;
#X obj 19 18 inlet;
#X obj 59 18 inlet;
#X obj 59 39 t b f;
#X obj 49 84 bng 15 250 50 0 empty empty empty 17 7 0 10 -262144 -1
-1;
#X obj 49 137 pack f f f f f f f;
#X obj 99 18 inlet;
#X obj 99 39 t b f;
#X obj 139 18 inlet;
#X obj 139 39 t b f;
#X obj 179 18 inlet;
#X obj 179 39 t b f;
#X obj 219 18 inlet;
#X obj 219 39 t b f;
#X obj 259 18 inlet;
#X obj 259 39 t b f;
#X obj 49 158 outlet;
#X connect 0 0 4 0;
#X connect 1 0 2 0;
#X connect 2 0 3 0;
#X connect 2 1 4 1;
#X connect 3 0 4 0;
#X connect 4 0 15 0;
#X connect 5 0 6 0;
#X connect 6 0 3 0;
#X connect 6 1 4 2;
#X connect 7 0 8 0;
#X connect 8 0 3 0;
#X connect 8 1 4 3;
#X connect 9 0 10 0;
#X connect 10 0 3 0;
#X connect 10 1 4 4;
#X connect 11 0 12 0;
#X connect 12 0 3 0;
#X connect 12 1 4 5;
#X connect 13 0 14 0;
#X connect 14 0 3 0;
#X connect 14 1 4 6;
#X restore 207 438 pd channelMixerValuePacker;
#X msg 527 273 \; pd dsp 1;
#X obj 527 251 delay 100;
#X text 221 228 output;
#X text 299 228 output;
#X text 379 228 output;
#X text 458 228 output;
#X msg 443 86 0.2;
#X connect 1 0 2 0;
#X connect 2 0 5 0;
#X connect 5 0 0 0;
#X connect 5 0 51 0;
#X connect 6 0 5 1;
#X connect 7 0 5 2;
#X connect 10 0 47 0;
#X connect 12 0 14 0;
#X connect 12 0 49 0;
#X connect 13 0 71 0;
#X connect 17 0 18 0;
#X connect 18 0 64 0;
#X connect 19 0 20 0;
#X connect 20 0 64 1;
#X connect 21 0 22 0;
#X connect 22 0 64 2;
#X connect 23 0 17 0;
#X connect 24 0 19 0;
#X connect 25 0 21 0;
#X connect 26 0 23 0;
#X connect 26 0 24 0;
#X connect 26 0 25 0;
#X connect 26 0 44 0;
#X connect 26 0 45 0;
#X connect 26 0 46 0;
#X connect 26 0 43 0;
#X connect 26 0 66 0;
#X connect 31 0 32 0;
#X connect 32 0 64 3;
#X connect 33 0 34 0;
#X connect 34 0 64 4;
#X connect 35 0 36 0;
#X connect 36 0 64 5;
#X connect 37 0 38 0;
#X connect 38 0 64 6;
#X connect 42 0 23 0;
#X connect 42 0 24 0;
#X connect 42 0 25 0;
#X connect 42 0 43 0;
#X connect 42 0 44 0;
#X connect 42 0 45 0;
#X connect 42 0 46 0;
#X connect 43 0 31 0;
#X connect 44 0 33 0;
#X connect 45 0 35 0;
#X connect 46 0 37 0;
#X connect 48 0 54 2;
#X connect 50 0 54 0;
#X connect 52 0 10 0;
#X connect 55 0 54 1;
#X connect 64 0 53 0;
#X connect 66 0 65 0;
#X connect 71 0 12 0;
